<svg height="120" width="120" xmlns="http://www.w3.org/2000/svg"><path d="M112.613 60A52.613 52.613 0 0 1 60 112.613 52.613 52.613 0 0 1 7.387 60 52.613 52.613 0 0 1 60 7.387 52.613 52.613 0 0 1 112.613 60z" fill="#80deea"/><path d="M18.505 47.207l-11.03 11.03A52.62 52.62 0 0 0 7.387 60c0 29.058 23.555 52.613 52.613 52.613a52.613 52.613 0 0 0 47.132-29.376L78.031 50.754 59.148 70.672z" fill="#009688" fill-rule="evenodd"/><path d="M72.542 49.752a6.792 6.792 0 0 1-6.792 6.792 6.792 6.792 0 0 1-6.792-6.792 6.792 6.792 0 0 1 6.792-6.793 6.792 6.792 0 0 1 6.792 6.793z" fill="#fff59d"/><path d="M50.121 34.123l-40.6 40.601A52.613 52.613 0 0 0 60 112.614a52.613 52.613 0 0 0 50.86-39.402L84.15 46.504l-7.924 13.725L50.12 34.123z" fill="#00897b" fill-rule="evenodd"/></svg>